<svg width="58" height="73" viewBox="0 0 58 73" fill="none" xmlns="http://www.w3.org/2000/svg">
<g clip-path="url(#clip0)">
<path d="M47.125 3.65C45.5564 3.66302 44.0344 4.18791 42.7873 5.1459C41.5402 6.1039 40.6353 7.44331 40.2084 8.96313C39.7815 10.4829 39.8557 12.1012 40.4198 13.5749C40.9839 15.0487 42.0074 16.2985 43.3369 17.1368L40.2013 27.375H39.875C38.2357 27.3795 36.6481 27.9532 35.38 28.9993L24.8313 21.024C25.2382 20.0264 25.4206 18.9504 25.3653 17.8733C25.31 16.7963 25.0184 15.7449 24.5114 14.7949C24.0044 13.8449 23.2947 13.0198 22.4332 12.3789C21.5717 11.738 20.5799 11.2973 19.5291 11.0884C18.4782 10.8796 17.3945 10.9078 16.3558 11.1709C15.3171 11.4341 14.3492 11.9258 13.5217 12.6106C12.6942 13.2953 12.0277 14.1562 11.57 15.1313C11.1124 16.1064 10.875 17.1715 10.875 18.25C10.883 19.5557 11.2386 20.8354 11.9049 21.9557C12.5712 23.076 13.5237 23.9958 14.6631 24.6192L10.875 40.15C9.08204 40.1365 7.34588 40.7827 5.99263 41.9671C4.63938 43.1514 3.76214 44.7926 3.52568 46.5822C3.28923 48.3718 3.70983 50.1867 4.70848 51.6862C5.70713 53.1856 7.21513 54.2663 8.94922 54.7253C10.6833 55.1843 12.5242 54.9901 14.1261 54.179C15.728 53.3679 16.9806 51.9959 17.6488 50.3206C18.317 48.6452 18.3547 46.7819 17.7549 45.0805C17.1551 43.3792 15.959 41.9569 14.3912 41.0808L18.125 25.55C19.7438 25.523 21.3071 24.9512 22.5656 23.9257L33.1144 31.901C32.7325 32.8954 32.5715 33.962 32.6428 35.0257C32.7141 36.0895 33.016 37.1246 33.5272 38.0582C34.0384 38.9919 34.7465 39.8016 35.6017 40.4302C36.4569 41.0588 37.4386 41.4912 38.4775 41.6969C39.5165 41.9026 40.5876 41.8766 41.6155 41.6209C42.6435 41.3651 43.6033 40.8857 44.4276 40.2164C45.2518 39.5472 45.9204 38.7042 46.3864 37.7468C46.8525 36.7895 47.1046 35.741 47.125 34.675C47.1186 33.4323 46.7973 32.2119 46.1915 31.1292C45.5857 30.0466 44.7154 29.1375 43.6631 28.4882L46.7987 18.25H47.125C49.0478 18.25 50.8919 17.4809 52.2515 16.1119C53.6112 14.7429 54.375 12.8861 54.375 10.95C54.375 9.01392 53.6112 7.15714 52.2515 5.78812C50.8919 4.4191 49.0478 3.65 47.125 3.65ZM18.125 14.6C18.842 14.6 19.5428 14.8141 20.1389 15.2151C20.7351 15.6162 21.1997 16.1863 21.4741 16.8532C21.7484 17.5202 21.8202 18.254 21.6803 18.9621C21.5405 19.6701 21.1952 20.3205 20.6883 20.8309C20.1813 21.3414 19.5354 21.689 18.8322 21.8299C18.129 21.9707 17.4002 21.8984 16.7378 21.6222C16.0754 21.3459 15.5092 20.8781 15.1109 20.2778C14.7126 19.6776 14.5 18.9719 14.5 18.25C14.5 17.282 14.8819 16.3536 15.5617 15.6691C16.2416 14.9846 17.1636 14.6 18.125 14.6ZM10.875 51.1C10.158 51.1 9.45719 50.8859 8.86106 50.4849C8.26493 50.0838 7.8003 49.5137 7.52594 48.8468C7.25157 48.1798 7.17978 47.446 7.31965 46.7379C7.45952 46.0299 7.80477 45.3795 8.31174 44.8691C8.8187 44.3586 9.46462 44.011 10.1678 43.8701C10.871 43.7293 11.5998 43.8016 12.2622 44.0778C12.9246 44.3541 13.4908 44.8219 13.8891 45.4222C14.2874 46.0224 14.5 46.7281 14.5 47.45C14.5 48.418 14.1181 49.3464 13.4383 50.0309C12.7584 50.7154 11.8364 51.1 10.875 51.1ZM39.875 38.325C39.158 38.325 38.4572 38.1109 37.8611 37.7099C37.2649 37.3088 36.8003 36.7387 36.5259 36.0718C36.2516 35.4048 36.1798 34.671 36.3197 33.9629C36.4595 33.2549 36.8048 32.6045 37.3117 32.0941C37.8187 31.5836 38.4646 31.236 39.1678 31.0951C39.871 30.9543 40.5998 31.0266 41.2622 31.3028C41.9246 31.5791 42.4908 32.0469 42.8891 32.6472C43.2874 33.2474 43.5 33.9531 43.5 34.675C43.5 35.643 43.1181 36.5714 42.4383 37.2559C41.7584 37.9404 40.8364 38.325 39.875 38.325ZM47.125 14.6C46.408 14.6 45.7072 14.3859 45.1111 13.9849C44.5149 13.5838 44.0503 13.0137 43.7759 12.3468C43.5016 11.6798 43.4298 10.946 43.5697 10.2379C43.7095 9.52989 44.0548 8.87952 44.5617 8.36906C45.0687 7.8586 45.7146 7.51097 46.4178 7.37013C47.121 7.2293 47.8498 7.30158 48.5122 7.57784C49.1746 7.8541 49.7408 8.32193 50.1391 8.92217C50.5374 9.52241 50.75 10.2281 50.75 10.95C50.75 11.918 50.3681 12.8464 49.6883 13.5309C49.0084 14.2154 48.0864 14.6 47.125 14.6Z" fill="#EE6F57"/>
</g>
<defs>
<clipPath id="clip0">
<rect width="58" height="73" fill="white"/>
</clipPath>
</defs>
</svg>
