<svg width="64" height="78" viewBox="0 0 64 78" fill="none" xmlns="http://www.w3.org/2000/svg">
<path d="M50.3039 15.6074C50.3039 17.0545 50.3039 18.5016 50.3039 19.9486C50.3039 23.3652 50.3039 26.7819 50.3039 30.1985C50.3039 34.1976 50.3039 38.1967 50.3039 42.1959C50.3039 45.3905 50.3039 48.5852 50.3039 51.7799C50.3039 52.6421 50.3039 53.5044 50.3039 54.3666C50.3039 54.5381 50.3039 54.7096 50.3039 54.8811C50.3039 54.8929 50.3039 54.9049 50.3039 54.9168C50.3039 54.9183 50.3039 54.9199 50.3039 54.9213C50.3039 55.0062 50.2985 55.0902 50.2916 55.1747C50.3235 54.7832 50.2885 55.147 50.2652 55.241C50.2456 55.32 50.2185 55.397 50.1915 55.4737C50.0958 55.7452 50.3215 55.2063 50.1931 55.4629C50.1454 55.5582 49.8387 55.9804 50.0882 55.6705C49.9877 55.7952 49.8705 55.9062 49.749 56.0112C49.5323 56.1987 49.9943 55.8422 49.7558 56.0032C49.666 56.0637 49.5701 56.1148 49.4737 56.1643C49.2145 56.2973 49.76 56.0612 49.4847 56.1627C49.4068 56.1915 49.3263 56.213 49.2461 56.2345C49.1647 56.2564 49.0815 56.2707 48.9985 56.2849C49.3787 56.2197 49.0953 56.2668 49.0055 56.271C48.9693 56.2727 48.9326 56.2723 48.8962 56.2723C48.8353 56.2723 48.7746 56.2723 48.7137 56.2723C48.421 56.2723 48.1283 56.2723 47.8355 56.2723C46.6767 56.2723 45.518 56.2723 44.3591 56.2723C40.6346 56.2723 36.9101 56.2723 33.1856 56.2723C29.2737 56.2723 25.3618 56.2723 21.4498 56.2723C19.3766 56.2723 17.3035 56.2723 15.2303 56.2723C15.1722 56.2723 15.1142 56.2718 15.056 56.271C14.9716 56.2697 14.673 56.2303 15.063 56.2849C14.9795 56.2732 14.8974 56.2539 14.8154 56.2345C14.7344 56.2155 14.6554 56.1891 14.5768 56.1627C14.2983 56.0695 14.8509 56.2895 14.5878 56.1643C14.49 56.1178 14.057 55.8187 14.3748 56.062C14.2255 55.9477 14.0946 55.8122 13.9733 55.6705C14.2284 55.9684 13.9215 55.5614 13.8684 55.4629C13.7321 55.2102 13.9743 55.7421 13.8701 55.4737C13.8406 55.3977 13.8184 55.3193 13.7964 55.241C13.774 55.1617 13.7594 55.0805 13.7448 54.9996C13.8117 55.3703 13.7633 55.094 13.7591 55.0065C13.7576 54.9767 13.7577 54.9467 13.7577 54.9168C13.7577 54.8788 13.7577 54.8409 13.7577 54.8029C13.7577 54.1873 13.7577 53.5718 13.7577 52.9561C13.7577 50.0623 13.7577 47.1684 13.7577 44.2746C13.7577 40.3197 13.7577 36.3648 13.7577 32.41C13.7577 28.781 13.7577 25.1521 13.7577 21.5232C13.7577 19.6072 13.7577 17.6912 13.7577 15.7752C13.7577 15.7252 13.7577 15.6752 13.7577 15.6252C13.7577 15.6193 13.7577 15.6132 13.7577 15.6073C13.7577 15.5224 13.7631 15.4384 13.7701 15.354C13.7399 15.7241 13.7579 15.4551 13.7767 15.3672C13.7938 15.2873 13.8185 15.2093 13.8431 15.1315C13.8603 15.0802 13.879 15.0296 13.8994 14.9794C13.8186 15.1608 13.8083 15.1895 13.8684 15.0657C13.9161 14.9704 14.2229 14.5482 13.9733 14.8581C14.0738 14.7333 14.191 14.6224 14.3124 14.5174C14.5292 14.33 14.0672 14.6863 14.3058 14.5254C14.3729 14.48 14.4442 14.4407 14.5153 14.4016C14.5861 14.3624 14.8508 14.2526 14.4994 14.3945C14.6019 14.3531 14.7087 14.3227 14.8155 14.2941C14.8969 14.2723 14.9801 14.258 15.0631 14.2437C14.6829 14.309 14.9663 14.2618 15.0561 14.2577C15.0914 14.256 15.1271 14.2563 15.1626 14.2563C15.2346 14.2563 15.3067 14.2563 15.3787 14.2563C17.1423 14.2563 18.9059 14.2563 20.6695 14.2563C21.034 14.2563 21.3985 14.2563 21.7629 14.2563C21.3254 13.8298 20.8879 13.4032 20.4504 12.9767C20.4504 13.714 20.4504 14.4514 20.4504 15.1888C20.4504 15.5304 20.4504 15.872 20.4504 16.2136C20.4504 17.0917 21.1579 17.837 22.0754 17.837C22.9178 17.837 23.7603 17.837 24.6028 17.837C28.4463 17.837 32.2898 17.837 36.1333 17.837C37.6833 17.837 39.2331 17.837 40.7831 17.837C41.1476 17.837 41.5121 17.837 41.8767 17.837C42.0863 17.837 42.3042 17.8317 42.4992 17.7514C43.1477 17.4848 43.6113 16.9702 43.6113 16.2519C43.6113 16.1449 43.6113 16.0379 43.6113 15.9308C43.6113 14.9462 43.6113 13.9614 43.6113 12.9767C43.1738 13.4033 42.7363 13.8298 42.2988 14.2564C43.8193 14.2564 45.3398 14.2564 46.8603 14.2564C47.5259 14.2564 48.1915 14.2564 48.8571 14.2564C48.9643 14.2564 49.0711 14.2602 49.1782 14.2685C48.7985 14.239 49.0744 14.2566 49.1646 14.2749C49.2465 14.2916 49.3265 14.3157 49.4063 14.3397C49.4864 14.3638 49.7445 14.4806 49.4 14.3293C49.4997 14.373 49.5941 14.427 49.6874 14.4822C49.756 14.5228 49.9821 14.6928 49.6867 14.4667C49.7507 14.5157 49.81 14.5701 49.869 14.6244C49.9282 14.6788 49.9823 14.7381 50.0362 14.7973C50.2284 15.0087 49.8628 14.5582 50.028 14.7908C50.0905 14.879 50.3188 15.3485 50.1622 14.9796C50.2369 15.1557 50.283 15.3419 50.3168 15.5291C50.2462 15.1376 50.3024 15.5129 50.3039 15.6074C50.3153 16.3048 50.8923 16.8871 51.6164 16.8871C52.3233 16.8871 52.9403 16.305 52.9289 15.6074C52.8996 13.8075 51.616 12.1639 49.7798 11.7901C49.1103 11.6539 48.4073 11.697 47.7277 11.697C45.9806 11.697 44.2335 11.697 42.4863 11.697C42.4238 11.697 42.3613 11.697 42.2987 11.697C41.5833 11.697 40.9862 12.279 40.9862 12.9767C40.9862 13.5348 40.9862 14.0931 40.9862 14.6513C40.9862 15.0217 40.9862 15.3922 40.9862 15.7626C40.9862 15.8841 40.9862 16.0056 40.9862 16.1271C40.9862 16.4648 40.9243 16.0195 41.0776 15.8259C41.2346 15.6728 41.3915 15.5198 41.5485 15.3668C41.7488 15.2159 42.2031 15.2776 41.8538 15.2776C41.7078 15.2776 41.5617 15.2776 41.4157 15.2776C40.8758 15.2776 40.336 15.2776 39.7961 15.2776C38.0425 15.2776 36.2888 15.2776 34.5351 15.2776C30.8718 15.2776 27.2086 15.2776 23.5453 15.2776C23.1823 15.2776 22.8194 15.2776 22.4566 15.2776C22.3591 15.2776 22.2616 15.2776 22.1641 15.2776C21.8698 15.2776 22.3281 15.2274 22.5131 15.3668C22.6701 15.5198 22.827 15.6728 22.984 15.8259C23.1301 16.0103 23.0754 16.4584 23.0754 16.1522C23.0754 16.0372 23.0754 15.9221 23.0754 15.8071C23.0754 15.4218 23.0754 15.0365 23.0754 14.6513C23.0754 14.0931 23.0754 13.5348 23.0754 12.9767C23.0754 12.279 22.4784 11.697 21.7629 11.697C20.2423 11.697 18.7218 11.697 17.2013 11.697C16.5358 11.697 15.8702 11.697 15.2046 11.697C13.6966 11.697 12.2356 12.5071 11.5659 13.8459C11.1393 14.6986 11.1327 15.5392 11.1327 16.4441C11.1327 17.4057 11.1327 18.3673 11.1327 19.3288C11.1327 22.6388 11.1327 25.949 11.1327 29.259C11.1327 33.2626 11.1327 37.2662 11.1327 41.2698C11.1327 44.5798 11.1327 47.8899 11.1327 51.2C11.1327 52.1615 11.1327 53.1231 11.1327 54.0847C11.1327 54.3162 11.1327 54.5478 11.1327 54.7793C11.1327 55.4521 11.2825 56.0696 11.5659 56.6828C12.176 58.0035 13.7041 58.8318 15.1558 58.8318C15.3217 58.8318 15.4877 58.8318 15.6536 58.8318C16.6121 58.8318 17.5705 58.8318 18.5289 58.8318C22.0655 58.8318 25.6021 58.8318 29.1387 58.8318C33.1464 58.8318 37.154 58.8318 41.1617 58.8318C43.6143 58.8318 46.0668 58.8318 48.5195 58.8318C48.6522 58.8318 48.7849 58.8318 48.9176 58.8318C50.725 58.8318 52.3197 57.6107 52.7963 55.9215C52.975 55.2883 52.9288 54.5962 52.9288 53.9445C52.9288 51.4293 52.9288 48.9141 52.9288 46.3989C52.9288 42.5452 52.9288 38.6916 52.9288 34.838C52.9288 31.0329 52.9288 27.2278 52.9288 23.4227C52.9288 21.0532 52.9288 18.6836 52.9288 16.3141C52.9288 16.0785 52.9288 15.843 52.9288 15.6074C52.9288 14.9098 52.3318 14.3277 51.6163 14.3277C50.9009 14.3277 50.3039 14.9098 50.3039 15.6074Z" fill="#EE6F57"/>
<path d="M41.9989 8.18946C39.8754 8.18946 37.7519 8.18946 35.6283 8.18946C36.0658 8.61602 36.5033 9.04259 36.9408 9.46915C36.9408 9.0956 36.9408 8.72206 36.9408 8.34851C36.9408 7.51513 36.7519 6.74969 36.3776 6.00224C35.5338 4.31659 33.4961 3.26572 31.5992 3.46462C29.8846 3.64439 28.2863 4.64461 27.5828 6.2157C27.2756 6.90173 27.1209 7.59679 27.1209 8.34851C27.1209 8.72206 27.1209 9.0956 27.1209 9.46915C27.5584 9.04259 27.9959 8.61602 28.4334 8.18946C26.8978 8.18946 25.3621 8.18946 23.8265 8.18946C23.241 8.18946 22.6555 8.18946 22.07 8.18946C21.1342 8.18946 20.4504 8.95295 20.4504 9.83361C20.4504 10.0724 20.4504 10.3111 20.4504 10.5499C20.4504 12.3036 20.4504 14.0573 20.4504 15.811C20.4504 15.962 20.4504 16.1132 20.4504 16.2643C20.4504 17.1425 21.214 17.837 22.0996 17.837C22.3926 17.837 22.6854 17.837 22.9783 17.837C26.4627 17.837 29.9471 17.837 33.4314 17.837C36.2628 17.837 39.0941 17.837 41.9254 17.837C42.5659 17.837 43.0074 17.5427 43.3911 17.0585C43.6299 16.757 43.6112 16.3269 43.6112 15.962C43.6112 15.17 43.6112 14.3781 43.6112 13.5862C43.6112 12.6462 43.6112 11.7062 43.6112 10.7663C43.6112 10.4843 43.6112 10.2023 43.6112 9.92027C43.6112 9.86957 43.6112 9.81881 43.6112 9.76811C43.6112 9.60266 43.5896 9.42661 43.5234 9.27366C43.29 8.73406 42.9849 8.47483 42.4276 8.24552C42.2847 8.22688 42.1418 8.20817 41.9989 8.18946C41.2879 8.09635 40.6864 8.84198 40.6864 9.46915C40.6864 9.80717 40.8258 10.1351 41.0708 10.374C41.3421 10.6385 41.6347 10.7011 41.9989 10.7488C41.9331 10.7469 41.8673 10.745 41.8014 10.743C41.6083 10.6334 41.4153 10.5236 41.2222 10.4139C40.9493 10.2084 40.9863 9.50327 40.9863 9.82021C40.9863 9.88407 40.9863 9.94799 40.9863 10.0119C40.9863 10.2484 40.9863 10.4849 40.9863 10.7215C40.9863 11.4753 40.9863 12.2292 40.9863 12.983C40.9863 13.7421 40.9863 14.5012 40.9863 15.2603C40.9863 15.5032 40.9863 15.7461 40.9863 15.989C40.9863 16.057 40.9863 16.125 40.9863 16.193C40.9863 16.4451 40.9424 15.9967 41.0777 15.826C41.2346 15.6729 41.3916 15.5199 41.5485 15.3669C41.7489 15.216 42.2031 15.2777 41.8538 15.2777C41.7078 15.2777 41.5618 15.2777 41.4158 15.2777C40.8759 15.2777 40.336 15.2777 39.7961 15.2777C38.0425 15.2777 36.2889 15.2777 34.5352 15.2777C30.8719 15.2777 27.2086 15.2777 23.5453 15.2777C23.1824 15.2777 22.8195 15.2777 22.4566 15.2777C22.3591 15.2777 22.2616 15.2777 22.1641 15.2777C21.8699 15.2777 22.3281 15.2275 22.5132 15.3669C22.6701 15.5199 22.8271 15.6729 22.9841 15.826C23.1158 15.9922 23.0754 16.4401 23.0754 16.2064C23.0754 16.1426 23.0754 16.0787 23.0754 16.0148C23.0754 15.7782 23.0754 15.5417 23.0754 15.3052C23.0754 14.5513 23.0754 13.7975 23.0754 13.0437C23.0754 12.2846 23.0754 11.5255 23.0754 10.7664C23.0754 10.5235 23.0754 10.2806 23.0754 10.0377C23.0754 9.96969 23.0754 9.90168 23.0754 9.83368C23.0754 9.49742 23.1155 10.206 22.8395 10.4139C22.6464 10.5236 22.4534 10.6334 22.2603 10.743C22.1613 10.7838 21.9798 10.7488 22.1132 10.7488C22.1776 10.7488 22.2421 10.7488 22.3066 10.7488C22.5378 10.7488 22.7691 10.7488 23.0003 10.7488C23.7392 10.7488 24.4781 10.7488 25.2169 10.7488C26.2891 10.7488 27.3613 10.7488 28.4334 10.7488C29.1488 10.7488 29.7459 10.1668 29.7459 9.46915C29.7459 9.13948 29.7459 8.80987 29.7459 8.4802C29.7459 8.33906 29.7448 8.19805 29.75 8.05692C29.7528 8.00092 29.7568 7.94492 29.7623 7.8891C29.7878 7.59203 29.7101 8.19153 29.7638 7.90056C29.7935 7.73981 29.8406 7.58265 29.893 7.42775C29.9109 7.37686 29.9301 7.32635 29.9504 7.27632C29.8157 7.61945 29.9163 7.36248 29.9532 7.28936C30.0254 7.14628 30.1126 7.01087 30.204 6.87888C30.2855 6.76901 30.2656 6.79168 30.1444 6.94683C30.1944 6.88431 30.2486 6.82514 30.3028 6.76609C30.4111 6.64787 30.5314 6.54068 30.6549 6.43782C30.7629 6.35263 30.7386 6.37054 30.5818 6.49169C30.6473 6.44428 30.7159 6.40119 30.7844 6.35823C30.9224 6.27176 31.0689 6.19931 31.2175 6.13209C30.8474 6.29961 31.2757 6.12137 31.3699 6.0934C31.4742 6.06244 32.0238 5.96951 31.5992 6.02399C31.7423 6.00565 31.8868 6.00065 32.0309 5.99901C32.1328 5.99779 32.2345 6.00449 32.3361 6.01144C32.6775 6.03472 32.0498 5.96037 32.3829 6.01979C32.5439 6.04849 32.701 6.09437 32.8561 6.14422C33.1699 6.24513 32.6019 6.02472 32.9011 6.15744C32.9886 6.19626 33.0728 6.2419 33.1567 6.28748C33.2306 6.32752 33.6432 6.61789 33.3636 6.40308C33.5133 6.51813 33.6485 6.65006 33.7777 6.78626C33.8203 6.83227 33.8614 6.87937 33.9014 6.92751C33.6856 6.6745 33.8832 6.91563 33.9203 6.96974C34.0269 7.12574 34.1138 7.29356 34.1933 7.46388C34.0449 7.14603 34.2281 7.6133 34.251 7.69599C34.2768 7.78904 34.2946 7.88398 34.3124 7.97874C34.2488 7.64023 34.3051 7.95796 34.3101 8.02773C34.3209 8.17764 34.3158 8.32992 34.3158 8.48013C34.3158 8.80981 34.3158 9.13942 34.3158 9.46909C34.3158 10.1667 34.9129 10.7488 35.6283 10.7488C37.7519 10.7488 39.8754 10.7488 41.9989 10.7488C42.7144 10.7488 43.3114 10.1667 43.3114 9.46909C43.3114 8.77148 42.7144 8.18946 41.9989 8.18946Z" fill="#EE6F57"/>
<path d="M32.0309 9.60442C32.7463 9.60442 33.3434 9.02228 33.3434 8.32473C33.3434 7.62712 32.7463 7.04504 32.0309 7.04504C31.3154 7.04504 30.7184 7.62712 30.7184 8.32473C30.7184 9.02228 31.3154 9.60442 32.0309 9.60442Z" fill="#EE6F57"/>
<path d="M19.1556 27.3606C21.2647 27.3606 23.3739 27.3606 25.4831 27.3606C29.4945 27.3606 33.5058 27.3606 37.5172 27.3606C39.9564 27.3606 42.3957 27.3606 44.8349 27.3606C44.8586 27.3606 44.8824 27.3606 44.9062 27.3606C45.6216 27.3606 46.2187 26.7786 46.2187 26.0809C46.2187 25.3833 45.6216 24.8013 44.9062 24.8013C42.797 24.8013 40.6878 24.8013 38.5787 24.8013C34.5673 24.8013 30.556 24.8013 26.5446 24.8013C24.1054 24.8013 21.6661 24.8013 19.2269 24.8013C19.2032 24.8013 19.1794 24.8013 19.1556 24.8013C18.4401 24.8013 17.8431 25.3833 17.8431 26.0809C17.8431 26.7786 18.4401 27.3606 19.1556 27.3606Z" fill="#EE6F57"/>
<path d="M19.1556 37.2744C21.2647 37.2744 23.3739 37.2744 25.4831 37.2744C29.4945 37.2744 33.5058 37.2744 37.5172 37.2744C39.9564 37.2744 42.3957 37.2744 44.8349 37.2744C44.8586 37.2744 44.8824 37.2744 44.9062 37.2744C45.6216 37.2744 46.2187 36.6922 46.2187 35.9947C46.2187 35.2971 45.6216 34.715 44.9062 34.715C42.797 34.715 40.6878 34.715 38.5787 34.715C34.5673 34.715 30.556 34.715 26.5446 34.715C24.1054 34.715 21.6661 34.715 19.2269 34.715C19.2032 34.715 19.1794 34.715 19.1556 34.715C18.4401 34.715 17.8431 35.2971 17.8431 35.9947C17.8431 36.6922 18.4401 37.2744 19.1556 37.2744Z" fill="#EE6F57"/>
<path d="M19.1556 47.1882C20.9938 47.1882 22.832 47.1882 24.6702 47.1882C25.3856 47.1882 25.9827 46.606 25.9827 45.9085C25.9827 45.2109 25.3856 44.6288 24.6702 44.6288C22.832 44.6288 20.9938 44.6288 19.1556 44.6288C18.4401 44.6288 17.8431 45.2109 17.8431 45.9085C17.8431 46.606 18.4401 47.1882 19.1556 47.1882Z" fill="#EE6F57"/>
<path d="M43.978 41.5725C41.8318 43.6651 39.6855 45.7578 37.5392 47.8504C36.5709 48.7945 35.6027 49.7386 34.6343 50.6827C35.253 50.6827 35.8718 50.6827 36.4905 50.6827C35.0581 49.2862 33.6257 47.8896 32.1934 46.493C31.6877 46 30.8429 46 30.3372 46.493C29.8316 46.9861 29.8316 47.8098 30.3372 48.3028C31.7696 49.6993 33.2019 51.0959 34.6342 52.4925C35.1399 52.9855 35.9847 52.9855 36.4904 52.4925C38.6367 50.3998 40.783 48.3071 42.9292 46.2145C43.8975 45.2705 44.8658 44.3264 45.8341 43.3823C46.3398 42.8892 46.3398 42.0655 45.8341 41.5725C45.3285 41.0795 44.4836 41.0795 43.978 41.5725Z" fill="#EE6F57"/>
</svg>
