<svg width="29" height="29" viewBox="0 0 29 29" fill="none" xmlns="http://www.w3.org/2000/svg">
<path fill-rule="evenodd" clip-rule="evenodd" d="M14.5 0C22.5028 0 29 6.49725 29 14.5C29 22.5028 22.5028 29 14.5 29C6.49725 29 0 22.5028 0 14.5C0 6.49725 6.49725 0 14.5 0ZM14.5 5.4375C12.0388 5.4375 11.7302 5.44792 10.7635 5.49204C9.79894 5.53605 9.14015 5.68927 8.56367 5.91328C7.96775 6.14489 7.46235 6.45477 6.95853 6.95858C6.45471 7.4624 6.14483 7.96781 5.91322 8.56372C5.68921 9.14015 5.53605 9.79894 5.49199 10.7635C5.44792 11.7302 5.4375 12.0388 5.4375 14.5C5.4375 16.9612 5.44792 17.2698 5.49199 18.2365C5.53605 19.2011 5.68921 19.8598 5.91322 20.4363C6.14483 21.0322 6.45471 21.5376 6.95853 22.0415C7.46235 22.5453 7.96775 22.8552 8.56367 23.0868C9.14015 23.3107 9.79894 23.4639 10.7635 23.508C11.7302 23.5521 12.0388 23.5625 14.5 23.5625C16.9612 23.5625 17.2698 23.5521 18.2365 23.508C19.2011 23.4639 19.8598 23.3107 20.4363 23.0868C21.0322 22.8552 21.5376 22.5453 22.0415 22.0415C22.5453 21.5376 22.8552 21.0322 23.0868 20.4363C23.3107 19.8598 23.4639 19.2011 23.508 18.2365C23.5521 17.2698 23.5625 16.9612 23.5625 14.5C23.5625 12.0388 23.5521 11.7302 23.508 10.7635C23.4639 9.79894 23.3107 9.14015 23.0868 8.56372C22.8552 7.96781 22.5453 7.4624 22.0415 6.95858C21.5376 6.45477 21.0322 6.14489 20.4363 5.91328C19.8598 5.68927 19.2011 5.53605 18.2365 5.49204C17.2698 5.44792 16.9612 5.4375 14.5 5.4375ZM14.5 7.07039C16.9198 7.07039 17.2064 7.07963 18.162 7.12324C19.0456 7.16357 19.5254 7.31117 19.8448 7.43527C20.2678 7.59964 20.5697 7.79607 20.8868 8.1132C21.204 8.43028 21.4004 8.73223 21.5647 9.15522C21.6888 9.47456 21.8365 9.95436 21.8768 10.838C21.9204 11.7936 21.9296 12.0802 21.9296 14.5C21.9296 16.9198 21.9204 17.2064 21.8768 18.162C21.8365 19.0456 21.6888 19.5254 21.5647 19.8448C21.4004 20.2678 21.204 20.5697 20.8868 20.8868C20.5697 21.204 20.2678 21.4004 19.8448 21.5647C19.5254 21.6888 19.0456 21.8365 18.162 21.8768C17.2066 21.9204 16.92 21.9296 14.5 21.9296C12.08 21.9296 11.7935 21.9204 10.838 21.8768C9.95436 21.8365 9.47456 21.6888 9.15522 21.5647C8.73217 21.4004 8.43028 21.204 8.11315 20.8868C7.79602 20.5697 7.59964 20.2678 7.43527 19.8448C7.31117 19.5254 7.16351 19.0456 7.12318 18.162C7.07957 17.2064 7.07039 16.9198 7.07039 14.5C7.07039 12.0802 7.07957 11.7936 7.12318 10.838C7.16351 9.95436 7.31117 9.47456 7.43527 9.15522C7.59964 8.73223 7.79602 8.43028 8.11315 8.1132C8.43028 7.79607 8.73217 7.59964 9.15522 7.43527C9.47456 7.31117 9.95436 7.16357 10.838 7.12324C11.7936 7.07963 12.0802 7.07039 14.5 7.07039ZM14.5 9.84629C11.9298 9.84629 9.84629 11.9298 9.84629 14.5C9.84629 17.0702 11.9298 19.1537 14.5 19.1537C17.0702 19.1537 19.1537 17.0702 19.1537 14.5C19.1537 11.9298 17.0702 9.84629 14.5 9.84629ZM14.5 17.5208C12.8317 17.5208 11.4792 16.1684 11.4792 14.5C11.4792 12.8317 12.8317 11.4792 14.5 11.4792C16.1684 11.4792 17.5208 12.8317 17.5208 14.5C17.5208 16.1684 16.1684 17.5208 14.5 17.5208ZM20.4251 9.66244C20.4251 10.2631 19.9382 10.7499 19.3376 10.7499C18.737 10.7499 18.2501 10.2631 18.2501 9.66244C18.2501 9.06182 18.737 8.57494 19.3376 8.57494C19.9382 8.57494 20.4251 9.06182 20.4251 9.66244Z" fill="#F6F5F5"/>
</svg>
