<svg width="61" height="55" viewBox="0 0 61 55" fill="none" xmlns="http://www.w3.org/2000/svg">
<path d="M51.262 14.0676C48.1909 9.28707 43.5659 5.71644 38.1698 3.95985C32.7736 2.20326 26.9375 2.36856 21.6489 4.42779C16.3604 6.48703 11.9441 10.3137 9.14742 15.2605C6.35069 20.2072 5.34522 25.9702 6.30113 31.5743" stroke="#EE6F57" stroke-width="4" stroke-linecap="round" stroke-linejoin="round"/>
<path d="M2.12698 29.6822L6.44963 33.7002L10.4593 29.3687" stroke="#EE6F57" stroke-width="4" stroke-linecap="round" stroke-linejoin="round"/>
<path d="M10.0403 41.1833C13.1907 45.8545 17.843 49.3032 23.2224 50.9552C28.6018 52.6072 34.3836 52.3627 39.6049 50.2624C44.8263 48.1621 49.172 44.3329 51.9184 39.4123C54.6648 34.4918 55.6461 28.7769 54.6989 23.2195" stroke="#EE6F57" stroke-width="4" stroke-linecap="round" stroke-linejoin="round"/>
<path d="M58.873 25.1169L54.5504 21.099L50.5406 25.4305" stroke="#EE6F57" stroke-width="4" stroke-linecap="round" stroke-linejoin="round"/>
</svg>
