<svg width="32" height="32" viewBox="0 0 32 32" fill="none" xmlns="http://www.w3.org/2000/svg">
<path d="M21.8977 13.8835C20.3175 13.8835 19.8095 15.4074 19.6967 16.3104V16.3668L19.4709 17.2134C20.1482 17.7777 20.9947 18.1728 21.8413 18.1728C22.97 18.1728 23.9859 17.2134 24.0424 15.9717C24.0424 14.843 23.0829 13.8835 21.8977 13.8835Z" fill="#F6F5F5"/>
<path d="M16.3104 2.08813C8.57848 2.08813 2.31393 8.35269 2.31393 16.0846C2.31393 23.8165 8.57848 30.0811 16.3104 30.0811C24.0423 30.0811 30.3069 23.8165 30.3069 16.0846C30.3069 8.35269 24.0423 2.08813 16.3104 2.08813ZM21.8977 20.3738C20.769 20.3738 19.8095 20.0352 18.963 19.5273L18.0035 24.0423H15.8025L17.157 17.8342C16.5926 17.044 16.0282 16.141 15.6332 15.2945V16.2539C15.6332 18.5679 13.7707 20.4303 11.5132 20.4303C9.25573 20.4303 7.3933 18.5679 7.3933 16.2539V10.6102H9.53792V16.2539C9.53792 17.3827 10.4409 18.2857 11.5697 18.2857C12.6984 18.2857 13.6014 17.3827 13.6014 16.2539V10.6102H15.746C16.1975 12.0211 16.9312 13.7142 17.8907 15.238C18.455 13.0934 20.0353 11.7954 22.0106 11.7954C24.3245 11.7954 26.2434 13.7142 26.2434 16.0282C26.1305 18.455 24.2116 20.3738 21.8977 20.3738Z" fill="#F6F5F5"/>
</svg>
